# xmcd
#
# Track frame offsets: 
#        150
#        14503
#        31319
#        52087
#        70758
#        95565
#        110154
#        132430
#        153540
#        168108
#        213397
#
# Disc length: 4440 seconds
#
# Revision: 0
# Processed by: cddbd v1.5.2PL0 Copyright (c) Steve Scherf et al.
# Submitted via: ExactAudioCopyFreeDBPlugin 1.0
#
DISCID=9b11560b
DTITLE=Various Artist - d'Girlz Begins OST
DYEAR=2006
DGENRE=Soundtrack
TTITLE0=Tahta - Dasar Pengecut
TTITLE1=Kapten - Lagu Sexy
TTITLE2=Ada Band - Karena Wanita (Ingin Dimengerti)
TTITLE3=Cindy Fatika Sari - Apakah Ini Cinta
TTITLE4=Soul.ID - Kuingin Kembali
TTITLE5=Radja - Tak Seperti Dulu
TTITLE6=Tahta - Bintang
TTITLE7=Panama - Elegi
TTITLE8=Cindy Fatika Sari - Missing You
TTITLE9=DJ Riri - Cloud Seven
TTITLE10=DATA - DATA
EXTD=
EXTT0=
EXTT1=
EXTT2=
EXTT3=
EXTT4=
EXTT5=
EXTT6=
EXTT7=
EXTT8=
EXTT9=
EXTT10=
PLAYORDER=
